<svg width="78" height="19" viewBox="0 0 78 19" fill="none" xmlns="http://www.w3.org/2000/svg">
<g clip-path="url(#clip0_0_434)">
<path opacity="0.2" fill-rule="evenodd" clip-rule="evenodd" d="M0.153076 9.06899C0.153076 4.11659 4.16828 0.101395 9.12068 0.101395C14.0731 0.101395 18.0877 4.11659 18.0883 9.06899C18.0883 14.022 14.0731 18.0366 9.12068 18.0366C4.16828 18.0366 0.153076 14.022 0.153076 9.06899ZM2.14028 9.06899C2.14028 12.9246 5.26568 16.0494 9.12068 16.0494C12.9757 16.0494 16.1005 12.9246 16.1005 9.06899C16.1005 5.21399 12.9757 2.08859 9.12068 2.08859C5.26568 2.08859 2.14028 5.21399 2.14028 9.06899Z" fill="#2F2432"/>
<path d="M12.6078 3.02819L13.6002 1.30859C12.2814 0.545395 10.7544 0.101395 9.12061 0.101395V0.101395V2.08859V2.08859C10.392 2.08859 11.5806 2.43419 12.6078 3.02819Z" fill="#2F2432"/>
<path d="M32.2109 11.834V13H27.9277V11.834H32.2109ZM28.3379 4.46875V13H26.8672V4.46875H28.3379ZM32.9375 9.90039V9.76562C32.9375 9.30859 33.0039 8.88477 33.1367 8.49414C33.2695 8.09961 33.4609 7.75781 33.7109 7.46875C33.9648 7.17578 34.2734 6.94922 34.6367 6.78906C35.0039 6.625 35.418 6.54297 35.8789 6.54297C36.3438 6.54297 36.7578 6.625 37.1211 6.78906C37.4883 6.94922 37.7988 7.17578 38.0527 7.46875C38.3066 7.75781 38.5 8.09961 38.6328 8.49414C38.7656 8.88477 38.832 9.30859 38.832 9.76562V9.90039C38.832 10.3574 38.7656 10.7812 38.6328 11.1719C38.5 11.5625 38.3066 11.9043 38.0527 12.1973C37.7988 12.4863 37.4902 12.7129 37.127 12.877C36.7637 13.0371 36.3516 13.1172 35.8906 13.1172C35.4258 13.1172 35.0098 13.0371 34.6426 12.877C34.2793 12.7129 33.9707 12.4863 33.7168 12.1973C33.4629 11.9043 33.2695 11.5625 33.1367 11.1719C33.0039 10.7812 32.9375 10.3574 32.9375 9.90039ZM34.3496 9.76562V9.90039C34.3496 10.1855 34.3789 10.4551 34.4375 10.709C34.4961 10.9629 34.5879 11.1855 34.7129 11.377C34.8379 11.5684 34.998 11.7188 35.1934 11.8281C35.3887 11.9375 35.6211 11.9922 35.8906 11.9922C36.1523 11.9922 36.3789 11.9375 36.5703 11.8281C36.7656 11.7188 36.9258 11.5684 37.0508 11.377C37.1758 11.1855 37.2676 10.9629 37.3262 10.709C37.3887 10.4551 37.4199 10.1855 37.4199 9.90039V9.76562C37.4199 9.48438 37.3887 9.21875 37.3262 8.96875C37.2676 8.71484 37.1738 8.49023 37.0449 8.29492C36.9199 8.09961 36.7598 7.94727 36.5645 7.83789C36.373 7.72461 36.1445 7.66797 35.8789 7.66797C35.6133 7.66797 35.3828 7.72461 35.1875 7.83789C34.9961 7.94727 34.8379 8.09961 34.7129 8.29492C34.5879 8.49023 34.4961 8.71484 34.4375 8.96875C34.3789 9.21875 34.3496 9.48438 34.3496 9.76562ZM43.5898 11.7285V8.70508C43.5898 8.47852 43.5488 8.2832 43.4668 8.11914C43.3848 7.95508 43.2598 7.82812 43.0918 7.73828C42.9277 7.64844 42.7207 7.60352 42.4707 7.60352C42.2402 7.60352 42.041 7.64258 41.873 7.7207C41.7051 7.79883 41.5742 7.9043 41.4805 8.03711C41.3867 8.16992 41.3398 8.32031 41.3398 8.48828H39.9336C39.9336 8.23828 39.9941 7.99609 40.1152 7.76172C40.2363 7.52734 40.4121 7.31836 40.6426 7.13477C40.873 6.95117 41.1484 6.80664 41.4688 6.70117C41.7891 6.5957 42.1484 6.54297 42.5469 6.54297C43.0234 6.54297 43.4453 6.62305 43.8125 6.7832C44.1836 6.94336 44.4746 7.18555 44.6855 7.50977C44.9004 7.83008 45.0078 8.23242 45.0078 8.7168V11.5352C45.0078 11.8242 45.0273 12.084 45.0664 12.3145C45.1094 12.541 45.1699 12.7383 45.248 12.9062V13H43.8008C43.7344 12.8477 43.6816 12.6543 43.6426 12.4199C43.6074 12.1816 43.5898 11.9512 43.5898 11.7285ZM43.7949 9.14453L43.8066 10.0176H42.793C42.5312 10.0176 42.3008 10.043 42.1016 10.0938C41.9023 10.1406 41.7363 10.2109 41.6035 10.3047C41.4707 10.3984 41.3711 10.5117 41.3047 10.6445C41.2383 10.7773 41.2051 10.9277 41.2051 11.0957C41.2051 11.2637 41.2441 11.418 41.3223 11.5586C41.4004 11.6953 41.5137 11.8027 41.6621 11.8809C41.8145 11.959 41.998 11.998 42.2129 11.998C42.502 11.998 42.7539 11.9395 42.9688 11.8223C43.1875 11.7012 43.3594 11.5547 43.4844 11.3828C43.6094 11.207 43.6758 11.041 43.6836 10.8848L44.1406 11.5117C44.0938 11.6719 44.0137 11.8438 43.9004 12.0273C43.7871 12.2109 43.6387 12.3867 43.4551 12.5547C43.2754 12.7188 43.0586 12.8535 42.8047 12.959C42.5547 13.0645 42.2656 13.1172 41.9375 13.1172C41.5234 13.1172 41.1543 13.0352 40.8301 12.8711C40.5059 12.7031 40.252 12.4785 40.0684 12.1973C39.8848 11.9121 39.793 11.5898 39.793 11.2305C39.793 10.8945 39.8555 10.5977 39.9805 10.3398C40.1094 10.0781 40.2969 9.85938 40.543 9.68359C40.793 9.50781 41.0977 9.375 41.457 9.28516C41.8164 9.19141 42.2266 9.14453 42.6875 9.14453H43.7949ZM50.3516 11.6875V4H51.7695V13H50.4863L50.3516 11.6875ZM46.2266 9.90039V9.77734C46.2266 9.29688 46.2832 8.85938 46.3965 8.46484C46.5098 8.06641 46.6738 7.72461 46.8887 7.43945C47.1035 7.15039 47.3652 6.92969 47.6738 6.77734C47.9824 6.62109 48.3301 6.54297 48.7168 6.54297C49.0996 6.54297 49.4355 6.61719 49.7246 6.76562C50.0137 6.91406 50.2598 7.12695 50.4629 7.4043C50.666 7.67773 50.8281 8.00586 50.9492 8.38867C51.0703 8.76758 51.1562 9.18945 51.207 9.6543V10.0469C51.1562 10.5 51.0703 10.9141 50.9492 11.2891C50.8281 11.6641 50.666 11.9883 50.4629 12.2617C50.2598 12.5352 50.0117 12.7461 49.7188 12.8945C49.4297 13.043 49.0918 13.1172 48.7051 13.1172C48.3223 13.1172 47.9766 13.0371 47.668 12.877C47.3633 12.7168 47.1035 12.4922 46.8887 12.2031C46.6738 11.9141 46.5098 11.5742 46.3965 11.1836C46.2832 10.7891 46.2266 10.3613 46.2266 9.90039ZM47.6387 9.77734V9.90039C47.6387 10.1895 47.6641 10.459 47.7148 10.709C47.7695 10.959 47.8535 11.1797 47.9668 11.3711C48.0801 11.5586 48.2266 11.707 48.4062 11.8164C48.5898 11.9219 48.8086 11.9746 49.0625 11.9746C49.3828 11.9746 49.6465 11.9043 49.8535 11.7637C50.0605 11.623 50.2227 11.4336 50.3398 11.1953C50.4609 10.9531 50.543 10.6836 50.5859 10.3867V9.32617C50.5625 9.0957 50.5137 8.88086 50.4395 8.68164C50.3691 8.48242 50.2734 8.30859 50.1523 8.16016C50.0312 8.00781 49.8809 7.89062 49.7012 7.80859C49.5254 7.72266 49.3164 7.67969 49.0742 7.67969C48.8164 7.67969 48.5977 7.73438 48.418 7.84375C48.2383 7.95312 48.0898 8.10352 47.9727 8.29492C47.8594 8.48633 47.7754 8.70898 47.7207 8.96289C47.666 9.2168 47.6387 9.48828 47.6387 9.77734ZM54.7578 6.66016V13H53.3398V6.66016H54.7578ZM53.2461 4.99609C53.2461 4.78125 53.3164 4.60352 53.457 4.46289C53.6016 4.31836 53.8008 4.24609 54.0547 4.24609C54.3047 4.24609 54.502 4.31836 54.6465 4.46289C54.791 4.60352 54.8633 4.78125 54.8633 4.99609C54.8633 5.20703 54.791 5.38281 54.6465 5.52344C54.502 5.66406 54.3047 5.73438 54.0547 5.73438C53.8008 5.73438 53.6016 5.66406 53.457 5.52344C53.3164 5.38281 53.2461 5.20703 53.2461 4.99609ZM57.7051 8.01367V13H56.293V6.66016H57.623L57.7051 8.01367ZM57.4531 9.5957L56.9961 9.58984C57 9.14062 57.0625 8.72852 57.1836 8.35352C57.3086 7.97852 57.4805 7.65625 57.6992 7.38672C57.9219 7.11719 58.1875 6.91016 58.4961 6.76562C58.8047 6.61719 59.1484 6.54297 59.5273 6.54297C59.832 6.54297 60.1074 6.58594 60.3535 6.67188C60.6035 6.75391 60.8164 6.88867 60.9922 7.07617C61.1719 7.26367 61.3086 7.50781 61.4023 7.80859C61.4961 8.10547 61.543 8.4707 61.543 8.9043V13H60.125V8.89844C60.125 8.59375 60.0801 8.35352 59.9902 8.17773C59.9043 7.99805 59.7773 7.87109 59.6094 7.79688C59.4453 7.71875 59.2402 7.67969 58.9941 7.67969C58.752 7.67969 58.5352 7.73047 58.3438 7.83203C58.1523 7.93359 57.9902 8.07227 57.8574 8.24805C57.7285 8.42383 57.6289 8.62695 57.5586 8.85742C57.4883 9.08789 57.4531 9.33398 57.4531 9.5957ZM67.0449 6.66016H68.3281V12.8242C68.3281 13.3945 68.207 13.8789 67.9648 14.2773C67.7227 14.6758 67.3848 14.9785 66.9512 15.1855C66.5176 15.3965 66.0156 15.502 65.4453 15.502C65.2031 15.502 64.9336 15.4668 64.6367 15.3965C64.3438 15.3262 64.0586 15.2129 63.7812 15.0566C63.5078 14.9043 63.2793 14.7031 63.0957 14.4531L63.7578 13.6211C63.9844 13.8906 64.2344 14.0879 64.5078 14.2129C64.7812 14.3379 65.0684 14.4004 65.3691 14.4004C65.6934 14.4004 65.9688 14.3398 66.1953 14.2188C66.4258 14.1016 66.6035 13.9277 66.7285 13.6973C66.8535 13.4668 66.916 13.1855 66.916 12.8535V8.0957L67.0449 6.66016ZM62.7383 9.90039V9.77734C62.7383 9.29688 62.7969 8.85938 62.9141 8.46484C63.0312 8.06641 63.1992 7.72461 63.418 7.43945C63.6367 7.15039 63.9023 6.92969 64.2148 6.77734C64.5273 6.62109 64.8809 6.54297 65.2754 6.54297C65.6855 6.54297 66.0352 6.61719 66.3242 6.76562C66.6172 6.91406 66.8613 7.12695 67.0566 7.4043C67.252 7.67773 67.4043 8.00586 67.5137 8.38867C67.627 8.76758 67.7109 9.18945 67.7656 9.6543V10.0469C67.7148 10.5 67.6289 10.9141 67.5078 11.2891C67.3867 11.6641 67.2266 11.9883 67.0273 12.2617C66.8281 12.5352 66.582 12.7461 66.2891 12.8945C66 13.043 65.6582 13.1172 65.2637 13.1172C64.877 13.1172 64.5273 13.0371 64.2148 12.877C63.9062 12.7168 63.6406 12.4922 63.418 12.2031C63.1992 11.9141 63.0312 11.5742 62.9141 11.1836C62.7969 10.7891 62.7383 10.3613 62.7383 9.90039ZM64.1504 9.77734V9.90039C64.1504 10.1895 64.1777 10.459 64.2324 10.709C64.291 10.959 64.3789 11.1797 64.4961 11.3711C64.6172 11.5586 64.7695 11.707 64.9531 11.8164C65.1406 11.9219 65.3613 11.9746 65.6152 11.9746C65.9473 11.9746 66.2188 11.9043 66.4297 11.7637C66.6445 11.623 66.8086 11.4336 66.9219 11.1953C67.0391 10.9531 67.1211 10.6836 67.168 10.3867V9.32617C67.1445 9.0957 67.0957 8.88086 67.0215 8.68164C66.9512 8.48242 66.8555 8.30859 66.7344 8.16016C66.6133 8.00781 66.4609 7.89062 66.2773 7.80859C66.0938 7.72266 65.877 7.67969 65.627 7.67969C65.373 7.67969 65.1523 7.73438 64.9648 7.84375C64.7773 7.95312 64.623 8.10352 64.502 8.29492C64.3848 8.48633 64.2969 8.70898 64.2383 8.96289C64.1797 9.2168 64.1504 9.48828 64.1504 9.77734ZM69.8926 12.2969C69.8926 12.0781 69.9668 11.8945 70.1152 11.7461C70.2637 11.5938 70.4648 11.5176 70.7188 11.5176C70.9766 11.5176 71.1777 11.5938 71.3223 11.7461C71.4707 11.8945 71.5449 12.0781 71.5449 12.2969C71.5449 12.5156 71.4707 12.6992 71.3223 12.8477C71.1777 12.9961 70.9766 13.0703 70.7188 13.0703C70.4648 13.0703 70.2637 12.9961 70.1152 12.8477C69.9668 12.6992 69.8926 12.5156 69.8926 12.2969ZM72.5645 12.2969C72.5645 12.0781 72.6387 11.8945 72.7871 11.7461C72.9355 11.5938 73.1367 11.5176 73.3906 11.5176C73.6484 11.5176 73.8496 11.5938 73.9941 11.7461C74.1426 11.8945 74.2168 12.0781 74.2168 12.2969C74.2168 12.5156 74.1426 12.6992 73.9941 12.8477C73.8496 12.9961 73.6484 13.0703 73.3906 13.0703C73.1367 13.0703 72.9355 12.9961 72.7871 12.8477C72.6387 12.6992 72.5645 12.5156 72.5645 12.2969ZM75.1484 12.2969C75.1484 12.0781 75.2227 11.8945 75.3711 11.7461C75.5195 11.5938 75.7207 11.5176 75.9746 11.5176C76.2324 11.5176 76.4336 11.5938 76.5781 11.7461C76.7266 11.8945 76.8008 12.0781 76.8008 12.2969C76.8008 12.5156 76.7266 12.6992 76.5781 12.8477C76.4336 12.9961 76.2324 13.0703 75.9746 13.0703C75.7207 13.0703 75.5195 12.9961 75.3711 12.8477C75.2227 12.6992 75.1484 12.5156 75.1484 12.2969Z" fill="#2F2432"/>
</g>
<defs>
<clipPath id="clip0_0_434">
<rect width="78" height="19" fill="white"/>
</clipPath>
</defs>
</svg>
