<svg width="13" height="7" viewBox="0 0 13 7" fill="none" xmlns="http://www.w3.org/2000/svg">
<path d="M6.125 4.88756L1.49372 0.256282C1.15201 -0.0854272 0.59799 -0.0854272 0.256282 0.256282C-0.0854272 0.59799 -0.0854272 1.15201 0.256282 1.49372L5.50628 6.74372C5.84799 7.08543 6.40201 7.08543 6.74372 6.74372L11.9937 1.49372C12.3354 1.15201 12.3354 0.59799 11.9937 0.256282C11.652 -0.0854272 11.098 -0.0854272 10.7563 0.256282L6.125 4.88756Z" fill="#707090"/>
<mask id="mask0_0_355" style="mask-type:luminance" maskUnits="userSpaceOnUse" x="0" y="0" width="13" height="7">
<path d="M6.125 4.88756L1.49372 0.256282C1.15201 -0.0854272 0.59799 -0.0854272 0.256282 0.256282C-0.0854272 0.59799 -0.0854272 1.15201 0.256282 1.49372L5.50628 6.74372C5.84799 7.08543 6.40201 7.08543 6.74372 6.74372L11.9937 1.49372C12.3354 1.15201 12.3354 0.59799 11.9937 0.256282C11.652 -0.0854272 11.098 -0.0854272 10.7563 0.256282L6.125 4.88756Z" fill="white"/>
</mask>
<g mask="url(#mask0_0_355)">
</g>
</svg>
