<svg width="16" height="17" viewBox="0 0 16 17" fill="none" xmlns="http://www.w3.org/2000/svg">
<path fill-rule="evenodd" clip-rule="evenodd" d="M15.0624 9.04955V7.56264C15.0624 7.30376 14.8526 7.09389 14.5937 7.09389C13.6253 7.09389 12.7225 7.17561 11.8695 7.34248C11.3723 6.86232 10.7662 6.51394 10.1098 6.32353C10.8255 5.72111 11.2812 4.81912 11.2812 3.81257C11.2812 1.986 9.80923 0.5 7.99995 0.5C6.19068 0.5 4.71871 1.986 4.71871 3.81257C4.71871 4.81912 5.1744 5.72111 5.89018 6.32349C5.23377 6.51394 4.62762 6.86232 4.1304 7.34245C3.27743 7.17561 2.37462 7.09385 1.40625 7.09385C1.14737 7.09385 0.937498 7.30373 0.937498 7.56261V9.04952C0.391905 9.24302 0 9.76407 0 10.3752V11.3127C0 11.9238 0.391905 12.4448 0.937498 12.6383V14.1252C0.937498 14.3841 1.14737 14.594 1.40625 14.594C3.85715 14.594 5.86974 15.1747 7.73998 16.4216C7.8967 16.526 8.10314 16.5263 8.26002 16.4216C10.1303 15.1747 12.1428 14.594 14.5938 14.594C14.8526 14.594 15.0625 14.3841 15.0625 14.1252V12.6383C15.6081 12.4448 16 11.9238 16 11.3127V10.3752C15.9999 9.7641 15.608 9.24305 15.0624 9.04955ZM5.65621 3.81257C5.65621 2.50295 6.70761 1.43752 7.99995 1.43752C9.29229 1.43752 10.3437 2.50295 10.3437 3.81257C10.3437 5.10494 9.29229 6.15637 7.99995 6.15637C6.70761 6.15637 5.65621 5.10494 5.65621 3.81257ZM0.937467 11.3127C0.937467 11.5712 1.14775 11.7815 1.40622 11.7815C1.66468 11.7815 1.87497 11.5712 1.87497 11.3127V10.3752C1.87497 10.1167 1.66468 9.90644 1.40622 9.90644C1.14775 9.90644 0.937467 10.1167 0.937467 10.3752V11.3127ZM7.5312 15.1905C5.82955 14.2173 4.00352 13.7254 1.87497 13.6633V12.6384C2.42056 12.4449 2.81246 11.9238 2.81246 11.3127V10.3752C2.81246 9.7641 2.42056 9.24305 1.87497 9.04955V8.03803C4.07749 8.10125 5.84789 8.61992 7.5312 9.69169V15.1905ZM5.27283 7.62583C6.23421 7.91793 7.13477 8.3336 7.99995 8.87952C8.86511 8.3336 9.7657 7.91793 10.7271 7.62583C10.1988 7.28251 9.57698 7.09389 8.93745 7.09389H7.06245C6.42292 7.09389 5.80108 7.28251 5.27283 7.62583ZM14.1249 13.6633C11.9964 13.7254 10.1703 14.2174 8.4687 15.1905V9.69206C10.152 8.6202 11.9223 8.10122 14.1249 8.03803V9.04955C13.5793 9.24305 13.1874 9.7641 13.1874 10.3752V11.3127C13.1874 11.9238 13.5793 12.4449 14.1249 12.6384V13.6633ZM14.5937 11.7815C14.8522 11.7815 15.0624 11.5712 15.0624 11.3127V10.3752C15.0624 10.1167 14.8522 9.90644 14.5937 9.90644C14.3352 9.90644 14.1249 10.1167 14.1249 10.3752V11.3127C14.1249 11.5712 14.3352 11.7815 14.5937 11.7815Z" fill="#AAAAAA"/>
</svg>
